<svg width="118" height="94" viewBox="0 0 118 94" fill="none" xmlns="http://www.w3.org/2000/svg">
<path d="M117.813 47.917C118.194 46.9919 117.982 45.9275 117.278 45.2206L73.0275 0.694417C72.051 -0.254779 70.4946 -0.227414 69.5513 0.755177C68.6313 1.71388 68.6313 3.23357 69.5513 4.19204L109.608 44.4982H2.45842C1.10072 44.4985 0 45.606 0 46.9722C0 48.3384 1.10072 49.446 2.45842 49.446H109.608L69.5564 89.7471C68.5799 90.6963 68.5527 92.2621 69.496 93.2449C70.4393 94.2275 71.9955 94.2546 72.9722 93.3057C72.9927 93.2857 73.0127 93.2656 73.0326 93.2449L117.283 48.7187C117.51 48.4889 117.69 48.2166 117.813 47.917Z" fill="#29ABE1"/>
<path d="M71.4544 94C70.1013 94.0025 69.0025 92.8964 69 91.5298C68.9989 90.8709 69.2579 90.2388 69.7198 89.7734L112.089 46.9836L69.7198 4.19367C68.7797 3.21073 68.8068 1.64411 69.78 0.694576C70.7295 -0.231525 72.2346 -0.231525 73.1839 0.694576L117.283 45.2365C118.239 46.2028 118.239 47.7692 117.283 48.7356L73.1839 93.2776C72.725 93.7402 72.103 94 71.4544 94Z" fill="#29ABE1"/>
<path d="M115.541 49H2.45841C1.10072 49 0 48.1047 0 47.0001C0 45.8955 1.10072 45 2.45841 45H115.542C116.899 45 118 45.8955 118 47.0001C118 48.1047 116.899 49 115.541 49Z" fill="#29ABE1"/>
</svg>
